<?xml version="1.0" standalone="no"?><!DOCTYPE svg PUBLIC "-//W3C//DTD SVG 1.1//EN" "http://www.w3.org/Graphics/SVG/1.1/DTD/svg11.dtd">
<svg t="1675315936709" class="icon" viewBox="0 0 1024 1024" version="1.1"
    xmlns="http://www.w3.org/2000/svg" p-id="2318"
    xmlns:xlink="http://www.w3.org/1999/xlink" width="200" height="200">
    <path d="M249.856 291.84a32 32 0 0 0-47.189333 28.16V725.333333a32 32 0 0 0 64 0V373.589333l230.144 123.904c9.472 5.12 20.906667 5.12 30.378666 0l230.144-123.904V725.333333a32 32 0 0 0 64 0V320a32 32 0 0 0-47.189333-28.16L512 432.981333 249.856 291.84z" p-id="2319"></path>
    <path d="M738.56 158.805333a2544.298667 2544.298667 0 0 0-453.12 0l-64.768 5.76a150.613333 150.613333 0 0 0-135.637333 128.256 1515.008 1515.008 0 0 0 0 438.357334 150.613333 150.613333 0 0 0 135.68 128.213333l64.682666 5.802667c150.784 13.482667 302.421333 13.482667 453.205334 0l64.725333-5.802667a150.613333 150.613333 0 0 0 135.637333-128.213333 1515.008 1515.008 0 0 0 0-438.357334 150.613333 150.613333 0 0 0-135.68-128.256l-64.682666-5.76zM291.157333 222.549333a2480.341333 2480.341333 0 0 1 441.770667 0l64.725333 5.802667a86.613333 86.613333 0 0 1 78.037334 73.728 1450.88 1450.88 0 0 1 0 419.84 86.613333 86.613333 0 0 1-78.037334 73.728l-64.725333 5.802667c-146.944 13.141333-294.826667 13.141333-441.770667 0l-64.725333-5.802667a86.613333 86.613333 0 0 1-78.037333-73.728 1451.008 1451.008 0 0 1 0-419.84 86.613333 86.613333 0 0 1 78.037333-73.728l64.725333-5.802667z"  p-id="2320"></path>
</svg>